<svg xmlns="http://www.w3.org/2000/svg" viewBox="0 0 256 256"><style>
.solid{fill:currentColor}.cut{fill:var(--emblem-cutout,#fff)}
.line{fill:none;stroke:currentColor;stroke-width:5;stroke-linecap:round;stroke-linejoin:round}
</style><g color="var(--emblem-color,#b89242)">
<path class="solid" d="M72 90c4-37 31-43 56-15 25-28 52-22 56 15 13 26 9 69-10 100-14 23-35 34-46 34s-32-11-46-34c-19-31-23-74-10-100z"/>
<path class="cut" d="M92 102c0-18 16-26 31-14-5 17-16 28-31 14zM164 102c0-18-16-26-31-14 5 17 16 28 31 14z"/>
<circle class="solid" cx="108" cy="98" r="7"/><circle class="solid" cx="148" cy="98" r="7"/><path class="cut" d="M128 110l-12 24h24zM99 145c13 10 22 23 29 43 7-20 16-33 29-43-8 29-18 53-29 65-11-12-21-36-29-65z"/>
<rect class="solid" x="86" y="215" width="84" height="12" rx="6"/>
<path class="solid" d="M128 16l6 15 16 5-15 6-6 16-6-15-16-5 15-6zM42 174c16 30 44 51 74 57-39 0-68-18-85-41zM214 174c-16 30-44 51-74 57 39 0 68-18 85-41zM45 143c14-11 19-27 18-48-16 17-21 33-18 48zM211 143c-14-11-19-27-18-48 16 17 21 33 18 48z"/></g></svg>