<svg xmlns="http://www.w3.org/2000/svg" viewBox="0 0 256 256"><style>
.solid{fill:currentColor}.cut{fill:var(--emblem-cutout,#fff)}
.line{fill:none;stroke:currentColor;stroke-width:5;stroke-linecap:round;stroke-linejoin:round}
</style><g color="var(--emblem-color,#b89242)">
<circle class="solid" cx="128" cy="128" r="108"/><circle class="cut" cx="128" cy="128" r="92"/><circle class="solid" cx="128" cy="128" r="86"/>
<circle class="cut" cx="128" cy="62" r="30"/><circle class="solid" cx="128" cy="62" r="20"/>
<path class="cut" d="M128 39l7 16 17 1-13 11 4 17-15-10-15 10 4-17-13-11 17-1z"/>
<rect class="cut" x="119" y="88" width="18" height="88" rx="5"/><rect class="cut" x="108" y="101" width="40" height="9" rx="4"/><rect class="cut" x="108" y="125" width="40" height="9" rx="4"/>
<path class="cut" d="M119 168h48v26h-19v-10h-11v22h-18zM58 148c19-9 33-23 41-40-11 18-24 29-41 40zM198 148c-19-9-33-23-41-40 11 18 24 29 41 40zM64 175c18 2 34 12 44 28-20-8-34-16-44-28zM192 175c-18 2-34 12-44 28 20-8 34-16 44-28z"/>
<path class="cut" d="M52 78l6 13 14 3-13 6-3 14-6-13-14-3 13-6zM204 78l6 13 14 3-13 6-3 14-6-13-14-3 13-6z"/></g></svg>